<svg width="37" height="35" viewBox="0 0 37 35" fill="none" xmlns="http://www.w3.org/2000/svg">
<path d="M13.0024 30.3972L18.3366 30.3972L18.3366 19.1111L11.2244 12.6129L4.11219 19.1111L4.11219 30.3972L9.44633 30.3972L9.44633 22.9451H13.0024L13.0024 30.3972ZM34.339 34.1232L2.33414 34.1232C1.86257 34.1232 1.41032 33.9269 1.07687 33.5776C0.743421 33.2282 0.556091 32.7543 0.556091 32.2602L0.556091 18.2634C0.556064 17.9972 0.610483 17.7341 0.715685 17.4918C0.820886 17.2494 0.974426 17.0336 1.16596 16.8587L7.66828 10.9175L7.66828 2.452C7.66828 1.9579 7.85561 1.48404 8.18906 1.13465C8.52251 0.78527 8.97476 0.588989 9.44633 0.588989L34.339 0.588989C34.8106 0.588989 35.2628 0.78527 35.5963 1.13465C35.9297 1.48404 36.1171 1.9579 36.1171 2.452L36.1171 32.2602C36.1171 32.7543 35.9297 33.2282 35.5963 33.5776C35.2628 33.9269 34.8106 34.1232 34.339 34.1232ZM25.4488 15.4931L25.4488 19.2191H29.0049L29.0049 15.4931H25.4488ZM25.4488 22.9451L25.4488 26.6712H29.0049L29.0049 22.9451H25.4488ZM25.4488 8.04104V11.7671H29.0049V8.04104H25.4488ZM18.3366 8.04104V11.7671L21.8927 11.7671V8.04104L18.3366 8.04104Z" fill="black"/>
</svg>
