<svg width="44" height="27" viewBox="0 0 44 27" fill="none" xmlns="http://www.w3.org/2000/svg">
<path d="M22.0174 13.1045C24.5633 13.1045 26.7139 10.209 26.7139 6.46269C26.7139 2.80597 24.5517 0 22.0174 0C19.4832 0 17.321 2.85075 17.3326 6.49254C17.3326 10.209 19.4716 13.1045 22.0174 13.1045ZM8.55588 13.4478C10.7762 13.4478 12.6478 10.9104 12.6478 7.65672C12.6478 4.46269 10.7646 2.02985 8.55588 2.02985C6.35879 2.02985 4.46394 4.50746 4.47556 7.68657C4.47556 10.9104 6.34716 13.4478 8.55588 13.4478ZM35.4441 13.4478C37.6528 13.4478 39.5244 10.9104 39.5244 7.68657C39.5361 4.50746 37.6412 2.02985 35.4441 2.02985C33.247 2.02985 31.3522 4.46269 31.3522 7.65672C31.3522 10.9104 33.2354 13.4478 35.4441 13.4478ZM2.15059 27H10.8692C9.62536 24.7164 10.9738 20.209 13.6011 17.5522C12.3223 16.4925 10.6483 15.7164 8.55588 15.7164C3.35958 15.7164 0 20.6269 0 24.6716C0 26.1493 0.581242 27 2.15059 27ZM41.8494 27C43.4188 27 44 26.1493 44 24.6716C44 20.6269 40.6404 15.7164 35.4441 15.7164C33.3517 15.7164 31.6893 16.4925 30.4106 17.5522C33.0378 20.209 34.3863 24.7164 33.1424 27H41.8494ZM14.7635 26.9851H29.2597C31.1778 26.9851 31.8404 26.2388 31.8404 24.8657C31.8404 21.0299 28.0391 15.7463 22.0174 15.7463C15.9841 15.7463 12.1945 21.0299 12.1945 24.8657C12.1945 26.2388 12.8571 26.9851 14.7635 26.9851Z" fill="black"/>
</svg>
