<svg width="40" height="40" viewBox="0 0 40 40" fill="none" xmlns="http://www.w3.org/2000/svg">
<path d="M31.32 15.0352L17.18 29.2462L8.7 20.7236L11.52 17.8894L17.18 23.5779L28.5 12.201L31.32 15.0352ZM4 20C4 15.3166 6.04 11.1156 9.24 8.1809L14 12.9648V0.904523H2L6.4 5.32663C2.48 8.98492 0 14.191 0 20C0 30.4322 7.9 38.995 18 40V35.9397C10.12 34.9548 4 28.1809 4 20ZM40 20C40 9.56784 32.1 1.00503 22 0V4.0603C29.88 5.04523 36 11.8191 36 20C36 24.6834 33.96 28.8844 30.76 31.8191L26 27.0352V39.0955H38L33.6 34.6734C37.52 31.0151 40 25.809 40 20Z" fill="black" fill-opacity="0.7"/>
</svg>
