<svg width="40" height="40" viewBox="0 0 40 40" fill="none" xmlns="http://www.w3.org/2000/svg">
<path d="M10.0001 21.6666C5.40008 21.6666 1.66675 25.3833 1.66675 30C1.66675 34.6166 5.40008 38.3333 10.0001 38.3333C14.6001 38.3333 18.3334 34.6 18.3334 30C18.3334 25.4 14.6167 21.6666 10.0001 21.6666ZM6.60008 26.6H10.0001C10.3007 26.6 10.5889 26.7194 10.8015 26.9319C11.014 27.1444 11.1334 27.4327 11.1334 27.7333C11.1334 28.0339 11.014 28.3221 10.8015 28.5347C10.5889 28.7472 10.3007 28.8666 10.0001 28.8666H6.60008C6.2995 28.8666 6.01123 28.7472 5.79869 28.5347C5.58615 28.3221 5.46675 28.0339 5.46675 27.7333C5.46675 27.4327 5.58615 27.1444 5.79869 26.9319C6.01123 26.7194 6.2995 26.6 6.60008 26.6ZM13.4001 33.4H6.60008C6.2995 33.4 6.01123 33.2806 5.79869 33.068C5.58615 32.8555 5.46675 32.5672 5.46675 32.2666C5.46675 31.65 5.98341 31.1333 6.60008 31.1333H13.4167C14.0501 31.1333 14.5501 31.65 14.5501 32.2666C14.5501 32.8833 14.0334 33.4 13.4001 33.4Z" fill="#6C6C6C" fill-opacity="0.5"/>
<path d="M28.3333 5H11.6666C6.66659 5 3.33325 7.5 3.33325 13.3333V18.5667C3.33325 19.7833 4.58325 20.55 5.69992 20.0667C7.61847 19.234 9.7368 18.9735 11.7999 19.3167C16.1666 20.0333 19.7333 23.4833 20.6166 27.8167C20.8666 29.0833 20.8999 30.3167 20.7333 31.5C20.5999 32.4833 21.3999 33.35 22.3833 33.35H28.3333C33.3333 33.35 36.6666 30.85 36.6666 25.0167V13.3333C36.6666 7.5 33.3333 5 28.3333 5ZM29.1166 14.3167L23.8999 18.4833C22.7999 19.3667 21.3999 19.8 19.9999 19.8C18.5999 19.8 17.1833 19.3667 16.0999 18.4833L10.8833 14.3167C10.6283 14.105 10.465 13.8029 10.4278 13.4736C10.3905 13.1443 10.482 12.8133 10.6833 12.55C11.1166 12.0167 11.8999 11.9167 12.4333 12.35L17.6499 16.5167C18.9166 17.5333 21.0666 17.5333 22.3333 16.5167L27.5499 12.35C28.0833 11.9167 28.8833 12 29.2999 12.55C29.7333 13.0833 29.6499 13.8833 29.1166 14.3167Z" fill="#3C3C43" fill-opacity="0.6"/>
<path d="M28.3333 5H11.6666C6.66659 5 3.33325 7.5 3.33325 13.3333V18.5667C3.33325 19.7833 4.58325 20.55 5.69992 20.0667C7.61847 19.234 9.7368 18.9735 11.7999 19.3167C16.1666 20.0333 19.7333 23.4833 20.6166 27.8167C20.8666 29.0833 20.8999 30.3167 20.7333 31.5C20.5999 32.4833 21.3999 33.35 22.3833 33.35H28.3333C33.3333 33.35 36.6666 30.85 36.6666 25.0167V13.3333C36.6666 7.5 33.3333 5 28.3333 5ZM29.1166 14.3167L23.8999 18.4833C22.7999 19.3667 21.3999 19.8 19.9999 19.8C18.5999 19.8 17.1833 19.3667 16.0999 18.4833L10.8833 14.3167C10.6283 14.105 10.465 13.8029 10.4278 13.4736C10.3905 13.1443 10.482 12.8133 10.6833 12.55C11.1166 12.0167 11.8999 11.9167 12.4333 12.35L17.6499 16.5167C18.9166 17.5333 21.0666 17.5333 22.3333 16.5167L27.5499 12.35C28.0833 11.9167 28.8833 12 29.2999 12.55C29.7333 13.0833 29.6499 13.8833 29.1166 14.3167Z" fill="black" fill-opacity="0.7"/>
</svg>
