<svg width="39" height="36" viewBox="0 0 39 36" fill="none" xmlns="http://www.w3.org/2000/svg">
<path d="M0.75 32L38.25 32V35.5L0.75 35.5L0.75 32ZM4.5 18L8.25 18L8.25 30.25L4.5 30.25L4.5 18ZM13.875 18L17.625 18L17.625 30.25L13.875 30.25L13.875 18ZM21.375 18H25.125L25.125 30.25H21.375L21.375 18ZM30.75 18H34.5V30.25H30.75L30.75 18ZM0.75 9.25L19.5 0.5L38.25 9.25L38.25 16.25L0.75 16.25L0.75 9.25ZM19.5 11C19.9973 11 20.4742 10.8156 20.8258 10.4874C21.1775 10.1592 21.375 9.71413 21.375 9.25C21.375 8.78587 21.1775 8.34075 20.8258 8.01256C20.4742 7.68438 19.9973 7.5 19.5 7.5C19.0027 7.5 18.5258 7.68438 18.1742 8.01256C17.8225 8.34075 17.625 8.78587 17.625 9.25C17.625 9.71413 17.8225 10.1592 18.1742 10.4874C18.5258 10.8156 19.0027 11 19.5 11Z" fill="#616161"/>
</svg>
