<svg width="390" height="205" viewBox="0 0 390 205" fill="none" xmlns="http://www.w3.org/2000/svg">
<path d="M363.235 99.5336L363.634 -11.5974L251.107 -12C251.107 49.6052 299.39 99.5336 359.245 99.5336H363.235Z" fill="#1A3EC1"/>
<path d="M448.601 204.728L449 93.5971L336.473 93.1945C336.473 154.8 384.756 204.728 444.611 204.728H448.601Z" fill="#101051"/>
<path d="M3.34701 -4.56201L-20.4048 19.8044V24.1984L7.30565 -4.56201H3.34701Z" fill="#35D5C3"/>
<path d="M21.9526 -4.56201L-20.4048 38.978V42.9725L26.3071 -4.56201H21.9526Z" fill="#35D5C3"/>
<path d="M40.5588 -4.56201L-20.8 57.7521V62.146L44.9132 -4.56201H40.5588Z" fill="#35D5C3"/>
<path d="M59.1643 -4.1626L-20.8 76.9256V81.3196L63.5188 -4.1626H59.1643Z" fill="#35D5C3"/>
<path d="M77.7699 -4.1626L-20.8 96.0992V100.493L82.1244 -4.1626H77.7699Z" fill="#35D5C3"/>
<path d="M91.2291 1.03003L-11.6952 105.686H-7.34071L91.2291 5.42397V1.03003Z" fill="#35D5C3"/>
<path d="M91.229 20.2041L6.91016 105.686H11.2646L91.229 24.5981V20.2041Z" fill="#35D5C3"/>
<path d="M91.2292 39.3779L25.9119 105.687L29.8705 106.086L91.2292 43.7719V39.3779Z" fill="#35D5C3"/>
<path d="M91.2289 58.552L44.5172 106.086H48.4758L91.2289 62.5465V58.552Z" fill="#35D5C3"/>
<path d="M91.2294 77.3254L63.1232 106.086H67.0818L90.8336 81.7194L91.2294 77.3254Z" fill="#35D5C3"/>
<path d="M90.8334 96.4994L81.7285 106.086H85.6872L90.8334 100.893V96.4994Z" fill="#35D5C3"/>
<path d="M393.182 100.632L393.383 -6.2997L336.674 -6.68713L336.473 100.245L393.182 100.632Z" fill="#35D5C3"/>
<path d="M248.906 93.1945L225.154 117.561V121.955L252.865 93.1945H248.906Z" fill="#35D5C3"/>
<path d="M267.512 93.1945L225.154 136.734V140.729L271.866 93.1945H267.512Z" fill="#35D5C3"/>
<path d="M286.118 93.1945L224.759 155.509V159.903L290.472 93.1945H286.118Z" fill="#35D5C3"/>
<path d="M304.724 93.5939L224.759 174.682V179.076L309.078 93.5939H304.724Z" fill="#35D5C3"/>
<path d="M323.329 93.5939L224.759 193.856V198.25L327.684 93.5939H323.329Z" fill="#35D5C3"/>
<path d="M336.788 98.7865L233.864 203.442H238.218L336.788 103.18V98.7865Z" fill="#35D5C3"/>
<path d="M336.788 117.96L252.469 203.443H256.824L336.788 122.354V117.96Z" fill="#35D5C3"/>
<path d="M336.788 137.134L271.471 203.443L275.43 203.842L336.788 141.528V137.134Z" fill="#35D5C3"/>
<path d="M336.788 156.308L290.076 203.843H294.035L336.788 160.303V156.308Z" fill="#35D5C3"/>
<path d="M336.788 175.082L308.682 203.842H312.641L336.393 179.476L336.788 175.082Z" fill="#35D5C3"/>
</svg>
