<svg width="390" height="844" viewBox="0 0 390 844" fill="none" xmlns="http://www.w3.org/2000/svg">
<path d="M89.7514 6.50952L-11.8153 108.884H-7.51826L89.7514 10.8077V6.50952Z" fill="#35D5C3"/>
<path d="M89.7513 25.2655L6.54468 108.884H10.8417L89.7513 29.5637V25.2655Z" fill="#35D5C3"/>
<path d="M391.336 667.3L186.16 850.522V858.552L400.4 667.3H391.336Z" fill="#35D5C3"/>
<path d="M419.12 676.655L204.88 867.906H213.944L419.12 684.685V676.655Z" fill="#35D5C3"/>
<path d="M419.12 711.995L243.36 867.906H252.437L419.12 720.009V711.995Z" fill="#35D5C3"/>
<path d="M419.12 747.335L282.88 868.218L291.137 868.946L419.12 755.345V747.335Z" fill="#35D5C3"/>
<path d="M419.12 781.635L322.4 868.946H330.597L419.12 788.973V781.635Z" fill="#35D5C3"/>
<path d="M358.169 102.866L358.563 -5.84258L247.52 -6.23645C247.52 54.0259 295.166 102.866 354.232 102.866H358.169Z" fill="#1A3EC1"/>
<path d="M445.529 204.728L445.923 96.0195L334.88 95.6256C334.88 155.888 382.526 204.728 441.592 204.728H445.529Z" fill="#101051"/>
<path d="M3.02846 1.03943L-20.41 24.8747V29.1729L6.93488 1.03943H3.02846Z" fill="#35D5C3"/>
<path d="M21.3886 1.03943L-20.41 43.6303V47.5378L25.6857 1.03943H21.3886Z" fill="#35D5C3"/>
<path d="M39.7494 1.03943L-20.8 61.9953V66.2934L44.0464 1.03943H39.7494Z" fill="#35D5C3"/>
<path d="M58.1095 1.43018L-20.8 80.7509V85.0491L62.4065 1.43018H58.1095Z" fill="#35D5C3"/>
<path d="M76.4697 1.43018L-20.8 99.5065V103.805L80.7667 1.43018H76.4697Z" fill="#35D5C3"/>
<path d="M89.7514 44.0216L25.2957 108.885L29.2021 109.276L89.7514 48.3198V44.0216Z" fill="#35D5C3"/>
<path d="M89.7512 62.7777L43.6556 109.276H47.562L89.7512 66.6851V62.7777Z" fill="#35D5C3"/>
<path d="M89.7516 81.1418L62.0161 109.275H65.9225L89.361 85.44L89.7516 81.1418Z" fill="#35D5C3"/>
<path d="M89.3609 99.8979L80.3761 109.276H84.2825L89.3609 104.196V99.8979Z" fill="#35D5C3"/>
<path d="M390.842 102.901L391.04 -1.69987L335.078 -2.07886L334.88 102.522L390.842 102.901Z" fill="#35D5C3"/>
<path d="M248.469 97.7045L225.03 121.54V125.838L252.375 97.7045H248.469Z" fill="#35D5C3"/>
<path d="M266.829 97.7045L225.03 140.295V144.203L271.126 97.7045H266.829Z" fill="#35D5C3"/>
<path d="M285.189 97.7045L224.64 158.66V162.958L289.486 97.7045H285.189Z" fill="#35D5C3"/>
<path d="M303.55 98.0952L224.64 177.416V181.714L307.847 98.0952H303.55Z" fill="#35D5C3"/>
<path d="M321.91 98.0952L224.64 196.172V200.47L326.207 98.0952H321.91Z" fill="#35D5C3"/>
<path d="M335.191 103.175L233.625 205.549H237.922L335.191 107.473V103.175Z" fill="#35D5C3"/>
<path d="M335.191 121.931L251.985 205.549H256.282L335.191 126.229V121.931Z" fill="#35D5C3"/>
<path d="M335.191 140.687L270.736 205.55L274.642 205.941L335.191 144.985V140.687Z" fill="#35D5C3"/>
<path d="M335.191 159.443L289.096 205.941H293.002L335.191 163.35V159.443Z" fill="#35D5C3"/>
<path d="M335.192 177.807L307.456 205.94H311.362L334.801 182.105L335.192 177.807Z" fill="#35D5C3"/>
</svg>
