<svg width="390" height="219" viewBox="0 0 390 219" fill="none" xmlns="http://www.w3.org/2000/svg">
<path d="M358.169 101.827L358.563 -6.88198L247.52 -7.27585C247.52 52.9865 295.166 101.827 354.232 101.827H358.169Z" fill="#1A3EC1"/>
<path d="M442.409 204.728L442.803 96.0195L331.76 95.6256C331.76 155.888 379.406 204.728 438.472 204.728H442.409Z" fill="#101051"/>
<path d="M3.02846 0L-20.41 23.8353V28.1335L6.93488 0L3.02846 0Z" fill="#35D5C3"/>
<path d="M21.3886 0L-20.41 42.5909V46.4983L25.6857 0L21.3886 0Z" fill="#35D5C3"/>
<path d="M39.7494 0L-20.8 60.9558V65.254L44.0464 0L39.7494 0Z" fill="#35D5C3"/>
<path d="M58.1095 0.390808L-20.8 79.7115V84.0097L62.4065 0.390808H58.1095Z" fill="#35D5C3"/>
<path d="M76.4697 0.390808L-20.8 98.4672V102.765L80.7667 0.390808H76.4697Z" fill="#35D5C3"/>
<path d="M89.7514 5.47009L-11.8153 107.845H-7.51826L89.7514 9.76826V5.47009Z" fill="#35D5C3"/>
<path d="M89.7513 24.2261L6.54468 107.845H10.8417L89.7513 28.5243V24.2261Z" fill="#35D5C3"/>
<path d="M89.7514 42.9822L25.2957 107.845L29.2021 108.236L89.7514 47.2804V42.9822Z" fill="#35D5C3"/>
<path d="M89.7512 61.7383L43.6556 108.237H47.562L89.7512 65.6457V61.7383Z" fill="#35D5C3"/>
<path d="M89.7516 80.1025L62.0161 108.236H65.9225L89.361 84.4007L89.7516 80.1025Z" fill="#35D5C3"/>
<path d="M89.3609 98.8586L80.3761 108.236H84.2825L89.3609 103.157V98.8586Z" fill="#35D5C3"/>
<path d="M387.722 102.901L387.92 -1.69984L331.958 -2.07883L331.76 102.523L387.722 102.901Z" fill="#35D5C3"/>
<path d="M442.409 210.964L442.803 102.256L331.76 101.862C331.76 162.124 379.406 210.964 438.472 210.964H442.409Z" fill="#101051"/>
</svg>
